<?xml version="1.0" standalone="no"?>
<!DOCTYPE svg PUBLIC "-//W3C//DTD SVG 20010904//EN"
 "http://www.w3.org/TR/2001/REC-SVG-20010904/DTD/svg10.dtd">
<svg version="1.0" xmlns="http://www.w3.org/2000/svg"
 width="620.000000pt" height="620.000000pt" viewBox="0 0 620.000000 620.000000"
 preserveAspectRatio="xMidYMid meet">
<metadata>
Created by potrace 1.11, written by Peter Selinger 2001-2013
</metadata>
<g transform="translate(0.000000,620.000000) scale(0.100000,-0.100000)"
fill="#000000" stroke="none">
<path d="M3868 6155 c-289 -71 -559 -356 -723 -765 -58 -144 -106 -310 -136
-467 l-23 -122 -29 66 c-69 158 -175 308 -299 429 -131 127 -282 217 -438 260
-92 26 -338 26 -430 0 -390 -108 -712 -485 -841 -983 -58 -227 -75 -523 -44
-758 8 -60 15 -111 15 -112 0 -2 -74 -3 -165 -3 l-165 0 0 -250 0 -250 110 0
110 0 5 -27 c46 -224 152 -381 370 -547 168 -128 384 -234 651 -322 92 -30
295 -81 354 -89 25 -3 53 -8 62 -11 23 -7 55 -13 103 -19 22 -3 56 -7 75 -10
109 -14 200 -23 257 -24 46 -1 42 2 152 -152 l33 -47 -187 -660 -187 -660 257
-301 c141 -166 258 -301 260 -301 2 0 119 135 260 301 l257 301 -185 652 -184
651 70 105 c38 58 71 106 72 108 4 4 36 9 105 16 36 4 76 8 90 11 14 2 43 6
65 10 22 3 67 10 100 16 33 5 69 12 80 14 126 21 370 91 520 149 150 58 418
203 482 261 6 5 33 28 59 50 95 78 234 246 234 281 0 6 6 17 14 23 14 11 53
134 59 186 l4 30 126 3 127 3 0 249 0 250 -181 0 -181 0 7 28 c17 66 45 248
56 365 15 160 6 541 -15 683 -112 744 -455 1277 -889 1379 -77 18 -223 18
-299 0z m327 -556 c331 -103 558 -479 558 -924 0 -312 -95 -559 -287 -751
-140 -139 -270 -197 -441 -197 -171 0 -301 58 -441 197 -192 192 -287 439
-287 751 0 302 92 551 273 739 181 188 404 254 625 185z m-2065 -570 c295 -36
535 -221 616 -473 37 -114 37 -248 0 -362 -138 -428 -698 -613 -1125 -371
-323 183 -432 581 -240 878 128 198 369 327 634 338 17 0 69 -4 115 -10z
m2716 -1876 c-13 -100 -101 -230 -208 -308 -64 -48 -238 -136 -305 -156 -24
-7 -43 -16 -43 -21 0 -5 -4 -7 -8 -4 -14 8 -82 -16 -75 -27 3 -6 2 -7 -4 -4
-9 5 -256 -36 -303 -50 -8 -3 -49 -7 -90 -9 -41 -3 -82 -7 -90 -10 -17 -6
-403 -6 -440 0 -14 2 -56 7 -95 11 -38 4 -117 15 -175 26 -327 61 -570 169
-720 318 -41 41 -79 74 -83 72 -5 -1 -6 3 -2 8 3 6 -1 21 -9 33 -23 36 -48
141 -39 161 3 4 610 7 1350 7 l1346 0 -7 -47z"/>
</g>
</svg>
