<svg xmlns="http://www.w3.org/2000/svg" xmlns:xlink="http://www.w3.org/1999/xlink" viewBox="0 0 2454.68 1303.99"><defs><style>.cls-1{fill:#fff;}.cls-2{fill:url(#linear-gradient);}.cls-3{fill:url(#linear-gradient-2);}.cls-4{fill:url(#linear-gradient-3);}.cls-5{fill:url(#linear-gradient-4);}.cls-6{fill:#d4145a;}.cls-7{fill:url(#radial-gradient);}.cls-8{fill:#c6ec52;}.cls-9{fill:#32bbf4;}.cls-10{fill:#020303;}</style><linearGradient id="linear-gradient" x1="1967.19" y1="1626.96" x2="2120.34" y2="1865.61" gradientUnits="userSpaceOnUse"><stop offset="0.17" stop-color="#c6ec52"/><stop offset="0.26" stop-color="#d9ee36"/><stop offset="0.34" stop-color="#e8ef22"/><stop offset="0.43" stop-color="#f0f015"/><stop offset="0.51" stop-color="#f3f011"/></linearGradient><linearGradient id="linear-gradient-2" x1="1413.94" y1="1858.85" x2="1495.65" y2="2087.24" gradientUnits="userSpaceOnUse"><stop offset="0.21" stop-color="#c6ec52"/><stop offset="0.32" stop-color="#d9ee36"/><stop offset="0.43" stop-color="#e8ef22"/><stop offset="0.54" stop-color="#f0f015"/><stop offset="0.64" stop-color="#f3f011"/></linearGradient><linearGradient id="linear-gradient-3" x1="1477.48" y1="1386.03" x2="2068.38" y2="655.35" gradientUnits="userSpaceOnUse"><stop offset="0.23" stop-color="#396def"/><stop offset="0.31" stop-color="#3972ef"/><stop offset="0.41" stop-color="#3782f0"/><stop offset="0.52" stop-color="#359cf2"/><stop offset="0.62" stop-color="#32bbf4"/></linearGradient><linearGradient id="linear-gradient-4" x1="1610.91" y1="2011.28" x2="1771.59" y2="828.48" gradientUnits="userSpaceOnUse"><stop offset="0.2" stop-color="#f3f011"/><stop offset="0.26" stop-color="#f1f014"/><stop offset="0.31" stop-color="#e9ef1f"/><stop offset="0.36" stop-color="#ddee31"/><stop offset="0.4" stop-color="#cced4a"/><stop offset="0.42" stop-color="#c6ec52"/><stop offset="0.55" stop-color="#85d699"/><stop offset="0.71" stop-color="#32bbf4"/><stop offset="0.79" stop-color="#3594f2"/><stop offset="0.87" stop-color="#3878f0"/><stop offset="0.92" stop-color="#396def"/></linearGradient><radialGradient id="radial-gradient" cx="554.02" cy="619.41" r="262.32" gradientUnits="userSpaceOnUse"><stop offset="0.22" stop-color="#04ff00"/><stop offset="0.28" stop-color="#04fc01"/><stop offset="0.34" stop-color="#04f105"/><stop offset="0.39" stop-color="#03df0c"/><stop offset="0.44" stop-color="#02c616"/><stop offset="0.48" stop-color="#01a623"/><stop offset="0.53" stop-color="#007f32"/></radialGradient></defs><title>fish</title><g id="colors"><g id="body_fins" data-name="body+fins"><path class="cls-1" d="M970.45,1052.89c-156.1-.47-279.3,122.86-279.56,278.08-.27,158.61,127,278.34,278.58,279.36,153.8-1,277.34-123.37,278.63-276.38S1128.34,1053.36,970.45,1052.89Z" transform="translate(-412.98 -722.08)"/><path class="cls-2" d="M2211.61,1600.12c-10,2.4-19.94,5.28-29.91,7.91-1.95.51-3.93.84-5.31,2.69,7.38,7.11,14,15,22.26,21.3a15.46,15.46,0,0,1,3.75,4.58c2.78,4.82,2.1,10.18-1.52,13.78s-8.76,4.46-13.74,1.52c-2.55-1.51-4.73-3.64-7.09-5.48-8.92-7-16-15.87-25.34-22.47s-9.56-6.94-20.37-.24c1.71,3,4.89,4.42,7.45,6.47a199.55,199.55,0,0,1,29.59,29.46c4,4.84,3.8,10.54.38,14.67-3.64,4.4-9.81,5.26-15.39,2a16.21,16.21,0,0,1-4.62-3.74c-11.58-14.82-27.08-25.44-40.6-38.18-2-1.91-4.12-3.44-7.1-2.39-6.67,2.37-13.71,3.85-20,7.39,3.88,4.08,7.31,7.63,10.67,11.23,3.62,3.89,5.32,9.23,9.78,12.55,2.45,1.82,3.47,4.81,4.49,7.65,1.8,5,.43,9.23-3.42,12.6s-9.36,3.63-13.84.25c-2.89-2.18-6-4.68-7.64-7.77-5.19-9.73-14-15.81-21.63-23.17-4-3.85-7.48-4-12.46-2.09q-55.7,20.69-110.53,43.51c-2.08.87-4.44,1.35-6.15,3.72,1.55,4.28,4.53,7.77,7.6,11.25,3.25,3.7,3.77,7.75.64,11.8-2.87,3.7-7.66,4.13-12.7,1.63-3.53-1.75-5.24-4.91-7.2-8-6.6-10.56-6.65-10.53-17.87-4.85-.54.28-.9.9-1.33,1.35,1.68,2.9,3.17,5.9,5.07,8.61s4.36,5,6.3,7.7c5.78,8,5.42,16.25-.72,20.41s-12,1.92-18.32-6.3c-4.43-5.76-8-12.19-13.59-17.13-2.21-2-3.92-3.37-6.9-2-6.22,2.94-12.49,5.77-19.2,8.86l9.34,15a236.83,236.83,0,0,1,15.48,30.15c2.73,6.17.26,11.81-5,14.53-5.43,2.82-11.83.9-15.57-4.81-.9-1.37-1.33-3-2.15-4.48-7-12.08-12.13-25.17-21.27-36-2.66-3.15-4.42-4-8.17-2.07-9.51,4.79-19.28,9.07-28.86,13.71-5.92,2.87-12.22,5.07-18.37,9.74,19.74,12.92,34.88,29.45,46.9,48.89,12.17,19.67,20.65,41,27.85,65.15l8.52-13.22c20.1-31.14,41.84-61,68.42-87a179.07,179.07,0,0,1,64.4-40.92c24.42-9,49.52-15.45,74.65-22,29.31-7.58,58.81-14.48,87.13-25.47,15.27-5.92,30-12.87,43-22.95,18.82-14.54,28.2-33.67,25.94-57.4C2225.62,1593.58,2227.16,1596.39,2211.61,1600.12Z" transform="translate(-412.98 -722.08)"/><path class="cls-3" d="M1511.51,1873.23c-17.42,5.52-35,10.53-52.51,15.8-1.07.32-2.66.5-2.51,3.3,9.66,5,17.35,14.5,29.78,15.84a30.5,30.5,0,0,1,9.45,3.06c5.15,2.45,7.25,7,5.72,11.32-1.46,4.13-5.21,6.51-10.46,5.6-11.5-2-22.65-4.89-32.24-12.28-7.89-6.06-16.29-11.45-24.43-17.18-2.22-1.57-4.41-3.08-7.31-2.12-5.29,1.75-11.07,1.65-17.06,4.54,12.33,9.82,24.23,19.17,38.1,25.81,8,3.8,10.33,8.4,7.85,13.67-2.6,5.53-8.25,6.37-16.42,2.32-18-8.94-33.79-21.06-48.92-34.07-3.25-2.8-5.86-4.44-10.51-3.47-7.79,1.63-15.8,2.23-23.73,3.15-11.7,1.38-23.42,2.66-36.39,4.12,7.87,9,17.21,13.25,26.57,17.25,21.24,9.06,43.66,14,66.28,18,40.72,7.21,81.88,10,123.13,11.6,8.85.34,17.72,0,26.48,0,0-1.2.26-2,0-2.4-18.93-24.42-32.55-51.73-43.49-80.46C1517.34,1872.73,1515.75,1871.88,1511.51,1873.23Z" transform="translate(-412.98 -722.08)"/><path class="cls-4" d="M1325.44,860.42c9.27-3.7,19.46-4.26,28.6-8.41a17.07,17.07,0,0,0,5.83-.59c8.25-2.33,16.48-5,24.91-6.41,16-2.65,31.89-5.6,47.25-11,3.38.63,6.47-.92,9.71-1.31,10.59-1.26,19.47,4.89,21.56,14.52,1,4.53-1,8.39-2.09,12.48a28.19,28.19,0,0,1-16.33,8.57c-7.78,1.39-15.68,2.47-22.84,6.2-17.59,2.16-34.71,6.4-52.12,10.87.73,1.22.84,1.62,1.09,1.77q38.91,23.39,77.84,46.75c1.74,1,3.44,2,5.59,1.46l44.26-11c15.64-4.6,31.88-7.62,45.72-17.05,6.3-2.77,12.41-6.16,18.94-8.2a17.28,17.28,0,0,1,22.32,20.15,47.1,47.1,0,0,1-2.26,6.49,60.81,60.81,0,0,1-12.37,8c-9.16,4.46-18.1,9.37-27.12,14.1-16.66,3.28-32,10.8-48.63,14.58,1.52,3.21,4.51,4.21,6.91,5.86,14.25,9.77,29.07,18.8,42.65,29.42,10.49,8.2,21.76,7.7,33,5.56,11-2.09,21.58-6.43,32.35-9.78,5.77-1.27,11.67-2.14,17.28-3.91,13.75-4.33,28.16-6.59,41.16-13.22,9-5.16,19.39-7.39,27.84-14.11,6-4.79,14.55-3,20.08,2.32,5.72,5.45,7.07,12.81,3.49,20-1.18,2.36-2.79,4.49-4.2,6.73-8,7.75-18.91,10.5-28.19,16.06-28.87,11.52-59.46,17.53-90.65,26.83,14.4,10.68,27.41,19.94,40,29.78,7.16,5.61,13.78,10.52,22.52,3.09.94-.79,2.48-.88,3.74-1.29,21.62-7.08,41.55-17.62,60.72-29.7,11.82-5,24.09-9.26,34.08-17.82,4.43-.81,7.38-4.33,11.25-6.15a17.26,17.26,0,0,1,24.89,15.2c.06,3.06-.88,5.86-1.69,8.71-3.6,4.16-7.37,8-12.3,10.78-3.62,2-7.72,3.36-10.44,6.79-29.44,13.66-57.45,30.15-88,43.72,5.3,4.45,9.87,8.25,14.41,12.09,10.24,8.67,9.36,10.28,21.37.53,11.07-9,22.08-18.17,35.26-24.2,8.93-4.08,17.88-2.27,23.11,5.22s3.85,16.88-3.7,23.25a79,79,0,0,1-12.35,8.1c-8.48,4.78-16.06,11.06-24.09,18.27,13.72,9.16,26.23,17.38,38.59,25.83,3.52,2.41,6.59,2.27,10.2.42a26.92,26.92,0,0,0,7.17-5.32c11.63-12,25.12-21.74,39.3-30.48,10.25-6.33,19.75-13.48,27.65-22.63,8.2-6,14.89-13.63,21.84-21a7.9,7.9,0,0,0,3.83-4.22c3.07-6.57,9.36-9.09,15.64-10.75,7-1.87,13,1.16,17.29,6.84,4.06,5.43,4.34,11.23,1.17,17.55-1.47,2.91-4.71,4.75-4.83,8.36-10.44,8.53-19.13,18.81-28.29,28.6-2.73.61-4.7,2.46-6.58,4.3a146.79,146.79,0,0,1-31.58,24c-12.74,7.05-23.08,17.07-33.92,28,21.44,12.67,42.48,23.91,63.81,34.63a5.21,5.21,0,0,0,6.35-.77c8.17-6.76,17.63-12.05,24.45-20.34,9.71-11.81,19.08-23.89,28.65-35.81a8.64,8.64,0,0,0,2-5.48c4.08-1.51,4.39-5.46,5.65-8.78,3-7.7,4.25-16,8.76-23.15,1.61-1.13,3.16-2.35,4.84-3.36a15.91,15.91,0,0,1,17.71.22,16.76,16.76,0,0,1,8.27,15.78,61,61,0,0,1-1.12,6.78c-4.46,12.28-8.12,24.91-15.5,35.93-2.37,2.76-4.88,5.41-7.08,8.3-12.87,16.9-25.17,34.28-41.72,48-.29.24,0,1.14,0,2.55l31.47,13.77c1.54.68,3.1,1.14,4.76.3,9.15-4.64,19.74-6.22,28-12.74,9-7.09,19.06-12,29.43-16.56,5.72-2.51,11.88-4.33,16.34-9.14,5.07-2.34,10.13-4.7,15.21-7,8-3.64,15.47-2.52,20.87,3.2,4.68,5,5.9,10.85,4.29,17.41-2.92,5.93-7.64,10-13.51,12.8-11.68,5.63-22.73,12.49-34.81,17.37a55.92,55.92,0,0,0-19.92,13,3,3,0,0,0,2.3,2.71c39,14.58,78.46,27.61,118.58,38.71,4,1.1,6.8,1.15,9.6-2.33,3.72-4.62,9.36-6.11,14.82-7.71,11.44-3.35,23.27-5.4,34.36-10,14.34-2.65,28.22-7,42.14-11.23,6.72-1.72,13.45-3.47,20.19-5.16,16.41-4.11,16.94-5.39,8-19.73a20.36,20.36,0,0,0-1.59-2.53c-10-11.82-19.48-24.09-30.1-35.29-16.07-16.93-34.14-31.73-52.21-46.47-1.48-1.21-2.76-3-5.11-2.51-5.5-4.6-10.29-10-16.12-14.27-33.92-25-67.3-50.74-103.38-72.77-21.14-12.92-40.77-28.28-61.58-41.76-69.33-44.87-140-87.52-211.54-128.83-44.67-25.82-89.35-51.63-134.34-76.9-42.74-24-87.39-43.56-135.39-54.62-12.21-2.81-24.25-6.66-37-6.67-1.33-3-4.34-2.78-6.78-3.13-23.62-3.33-47.36-5.52-71.21-3.83-12.78.91-25.75,1.21-38.16,5.18-24.93,3.36-48.21,11.63-70.22,23.68-14.06,5.85-27.93,15-32.49,21.52q37.82,17,74.6,35.89C1320.25,860.12,1322.68,861.53,1325.44,860.42Z" transform="translate(-412.98 -722.08)"/><path class="cls-5" d="M2788.74,1856.84c-1.81-4.46-4.21-6.84-9.14-7.67-17.7-3-35.32-6.37-53-9.6-7.15-4.81-9.47-11.25-6.59-19.45,5.15-5.88,11.31-6.84,18.83-5.13s15.39,3.82,24.87,3.81c-5.69-7-10.59-12.71-15.23-18.68-2.22-2.85-4.94-2.79-8-2.45-9.52,1-19.05,2-28.57,3-2.91.23-5.82.54-8.74.67-11.34.51-15.94-7.47-13.87-16.8.28-1.27.66-2.51,1-3.77,3-3.08,6.22-5.27,10.93-5.47,7.08-.32,14.12-1.48,23-2.5-6.88-7.23-12.53-13.14-18.13-19.11-1.89-2-4-2-6.36-1.14l-15.73,5.78c-2.79.74-5.71,1.17-8.35,2.27-6.1,2.55-11.93,2.47-17.64-.93-3.07-4.67-5-9.58-3.12-15.25,2.78-4.39,6.82-6.9,11.75-8.35,5.16-1.53,10.23-3.39,15.8-5.26-7.25-10.51-15.21-16.89-27.61-15.15-2.89.4-5.89.07-8.84.07-10.5-2.69-21.31-1.17-31.91-2.43-8.33-4.12-10.46-10.85-8.18-19.44,4.38-5.47,10.1-6.94,16.91-6.28,4.66.44,9.51,1.1,15.35-.25-3.48-3.32-6.39-5.25-8.18-7.93-6.87-10.29-16.52-10.71-27.15-8.3a5.58,5.58,0,0,0-.92.38,193.68,193.68,0,0,0-26.05,1.14c-2.29-.14-4.6-.18-6.88-.43a11.79,11.79,0,0,1-10.66-8.91,12,12,0,0,1,3.88-13.38,50.32,50.32,0,0,1,5.75-3.7c11.06-.17,22.12-.27,34.57-1.57-3.93-5.35-6.72-9-9.38-12.81-1.61-2.3-3.44-4-6.47-3.89-7,.16-13.81-2-20.82-1.34-12.27-1-24.54-1.91-36.79-3.15-9.59-1-15.14-6.85-14.3-14.55s6.38-11.73,16-11.29c7.64.35,15.26,1.22,22.9,1.71,4.72.31,9.5,1.19,15.58,0-3.42-4.69-6.27-7.94-8.36-11.62-3.06-5.38-7.54-7.78-13.46-9-10.92-2.26-22-3.66-32.79-6.69-12.14-3.41-24.65-5.52-37-8.23-11.05-2.42-15.8-8.25-13.8-16.87,1.81-7.79,8.4-10.78,19.36-8.64,4.57.89,9.08,2.08,13.63,3,10.87,2.31,21.76,4.57,32.63,6.85-3.69-8-8.43-14.34-13.06-20.75-2-2.78-4.94-3-7.94-3.42-21.71-3.26-43.38-6.78-65.13-9.8-7-1-11.79-4-14.49-10.42,1.2-13.24,5.86-17.22,18.6-15.44,10.51,1.47,21,3.37,31.47,4.91,3.66.53,7.45,1.77,12.36-.09L2484,1484a34.23,34.23,0,0,1,0-26.79c-6.18-3-11.9.34-17.69.43-14.82.23-29.75.22-44.34,3.45a6.59,6.59,0,0,1-4.44-.56c-8.77-3.44-10.59-7.27-9.1-19.83,2.5-4.6,6.2-6.58,11.6-6.8,12.08-.5,24.13-1.63,36.19-2.51l3.53-.19a10.36,10.36,0,0,0,6.56-.74,1.53,1.53,0,0,0,2.36-.24,8.18,8.18,0,0,0,5.26-.28l17.77-.37c3.17-.06,5.66-1,7.06-4.24,4.22-10,8.63-19.86,13.39-30.75-9.51,1.19-18,1.16-26.22,3.63-3.69-.39-7.27.41-10.9.87-7.47,1-14.77,3-22.42,2.93-8.69-.12-14.12-4.08-14.85-11.44-.78-7.83,3.94-13.23,12.93-14.56,5.59-.83,11.24-1.24,16.81-2.17,12.77-2.14,25.8-2.53,38.4-5.77,18.08-.26,18.08-.26,25.34-16.73,1.07-2.42,2.26-4.8,3.12-7.28,1.79-5.14,5.61-9.61,5.53-16.15-7,.53-13.57-.08-20,2.09a146.38,146.38,0,0,0-22.73,1.09c-3.29.35-6.55.66-9.64-1.08-4.67-2.64-7.76-8.29-7.11-13.21a12.54,12.54,0,0,1,11-11.07c9.46-1.3,19-2,28.5-3,9.24-.51,18.49-1,27.72-1.6,2.54-.18,5.49-.1,6.81-3.13,3.26-7.49,7.22-14.72,9.64-23.22-11.77-1.72-23.07-.06-34-2.37a28,28,0,0,1-2.84-2.59c-4-4.69-5.06-10-2.27-15.55,2.65-5.25,7.44-7,13.19-6.76,2.61.13,5.23-.12,7.85-.19,8.24.33,16.5.47,24.72,1.08,4.43.34,6.69-1.42,8-5.43,2.58-7.61,7.14-14.09,12-20.4,1.29-1.67,3.63-3.09,2.51-6.36-12.38-.8-24.75,1.17-37.17,1.6l-2.43-1.68c-5.4-3.81-7.86-8.89-5.94-15.39s7-9,13.58-9.24c4.26-.16,8.49-1,12.74-1.47,7.63-.14,15.27-.1,22.9-.46,19.37-.91,19.37-1,30.79-16.18,3.19-4.26,6.41-8.49,9.59-12.76,3.7-5,7.37-10,11.42-15.46-4.27-.71-6.89.94-9.63,1.86-11.63,3.91-23.31,7.69-34.77,12.06-6.16,2.34-12.06,3.05-18.29,1-8.16-11.17-5.84-19.9,6.63-24.52,11-4.07,22.05-8,33.08-12a269.29,269.29,0,0,0,30.5-10.42c2.24-.63,4.45-1.41,6.72-1.87,11-2.28,18.22-9.07,25.1-17.9,25.66-32.89,47.49-68.3,69.77-103.43.93-1.48,2.84-2.87,1.13-5.76-21.44,7.8-42.32,16.87-61.61,29.38a183.11,183.11,0,0,0-35.55,22.36,26.12,26.12,0,0,0-8.44,5.11c-22.82,18.63-41.87,40.91-61,63.12-52.17,60.65-101.57,123.6-153.2,184.7-25.39,30-50.77,60.1-79.1,87.47-9.59,9.27-19.5,18.23-31.13,25-8.54,5-17.53,7.83-27.67,6.2-32.55-5.23-65-10.74-97.31-17.47-31.52-6.57-62.59-15-93.93-22.25-15.48-3.6-30.32-9.1-45.39-13.93-149.06-47.68-288.42-113.55-410.44-213.63-58.22-47.75-120.16-90.78-183-132.3-24.73-16.33-49.46-32.67-75.25-47.31-2.77-1.83-5.46-3.78-8.31-5.47-7.94-4.73-16.24-8.82-24.34-13.23-14.5-7.89-28.7-16.4-43-24.73-20.08-11.71-41.15-21.77-62.11-31.89-12.19-5.88-24-12.65-37.39-16.07a60.27,60.27,0,0,1-17.76-7.86,57.81,57.81,0,0,0-17-7.58c-3.73-2.94-8.33-4-12.6-5.72-47-18.75-95.29-33.69-143.76-48.1-33.17-9.86-66.26-19.55-101-22.77-37.72-3.49-75.15-3.29-112.17,5.22-21.41,4.92-42.32,11.52-61.22,23.21-9.07,3.5-16.94,9.07-24.75,14.64-23,16.42-43.25,35.65-58.6,59.64-23,31.24-38.8,65.73-45.79,103.93-6.23,34-11.87,68.11-17.4,102.23-2.92,18-6.82,35.9-8.62,54.11-4.93,23.13-8.65,46.48-11.9,69.91-1.09,5.47-2.39,10.92-3.24,16.43-2.87,18.49-7,36.79-8.86,55.44-2.22,4.91-2.11,10.31-3.15,15.46-3.13,15.48-6,31-9,46.5a250.62,250.62,0,0,0-7.52,32.11c-5.76,22.08-11.44,44.17-17.3,66.22-6.62,24.92-15.09,49.27-22.91,73.82l-18.68,43.83c-4.71,7.57-9.27,15.24-14.21,22.67-1.95,2.94-1.49,4.62,1.23,6.5,10.89,7.52,21.71,15.15,32.56,22.73a2.1,2.1,0,0,0,1.44,1.22c1.54,1.26,3,2.58,4.64,3.76,30.36,22.2,61,44,90.52,67.35a98.31,98.31,0,0,1,12.59,11.33c9.87,11.09,9.43,25.18-.7,36-4.12,4.41-9.06,7.82-14,11.18-17.36,11.77-35.39,22.47-53.29,33.38-2.74,1.66-5.89,2.81-8,5.56,1.28,2.91,4.07,3.49,6.3,4.74,21.26,11.91,43.78,20.92,66.82,28.65,29,9.74,58.44,18,88.62,23.33a132,132,0,0,0,29.76,6,409.8,409.8,0,0,0,63.48,9.57c3.28.57,6.54,1.3,9.84,1.69q78.91,9.26,158.35,11.8,101.89,3.1,203.81-.7c32.94-1.27,65.87-2.84,98.87-2.83,42,0,83.69-4.94,125-13,54.1-10.51,106.1-27.87,157.29-47.9,46.15-18.06,91.6-37.93,138.57-53.87a212.77,212.77,0,0,0,26.67-11.11q80.91-40.2,163.78-76.21c10.27-4.46,20.91-8.18,30.52-14.08,7.74-1.72,14.9-5.06,22.19-8,17.41-7.11,34.68-14.59,52.24-21.32,23.14-8.87,46.5-17.17,69.77-25.71,2.25-.57,4.54-1,6.72-1.74,60-20.75,120.8-38.36,182.85-51.68l50.28-9c5.62-.46,11.28-.63,16.84-1.47a27.42,27.42,0,0,1,15.62,1.85c35.59,15.86,70.2,33.37,101,57.74,30,23.76,58.47,49.27,86.88,74.85q29.63,26.67,59.32,53.26c13,13.49,26.35,26.58,40.41,39,12.13,12.72,24.52,25.16,37.76,36.74,6.12,7.81,12.05,15.78,18.39,23.41,14.84,17.82,30,35.38,47.5,50.69a25.48,25.48,0,0,0,2.39,3.12,858.27,858.27,0,0,0,74.95,64.37c1.22.93,2.41,2.31,4.71,1.11-1.31-7.68-2.47-15.56-4-23.34C2800.07,1893,2795.88,1874.52,2788.74,1856.84ZM1288,1363.92c-2.68,6.29-1.65,13.14-3,19.63-7.37,40.83-21.27,79.19-42.87,114.72-11.75,19.34-25.94,36.76-40.92,53.61-13,12.33-26.1,24.5-39.92,35.9-34.24,24.12-71,43.07-111.9,53-73.55,17.79-145.09,12.34-214.22-19.49a307.76,307.76,0,0,1-74.38-47.92,12.24,12.24,0,0,0-2.59-1.36c-12.57-14.11-27.12-26.34-38.87-41.26-1.74-2.21-2.76-5.25-5.52-6.67-8.55-13.42-17.8-26.37-25.29-40.5-13.94-26.29-24.55-53.74-30.85-82.84-.49-2.27-1.27-4.47-1.92-6.7q-2.24-16-4.49-32.06c-.31-10.5-.35-21-1-31.48-.67-10.91,1.73-21.65,1.22-32.52a399.11,399.11,0,0,1,16-71.88c8.17-22.2,19.08-43.11,30.15-63.94,28.55-42,62.82-78.12,106.82-104.2,43-25.52,89.24-40.63,139.42-44.51,59.28-4.57,115.29,6.07,168.41,32.24a306.49,306.49,0,0,1,78,55.16c25.14,24.31,46.21,51.52,62.37,82.52a329.23,329.23,0,0,1,25.44,64.93c.7,2.57,1.56,5.09,2.34,7.63l4.38,22.61q2,19.79,4,39.56Z" transform="translate(-412.98 -722.08)"/></g><g id="eye"><g id="veins"><path class="cls-6" d="M941.72,1229.65c1.79-13.92-15.35-17.86-24.23-23.78-7.26-4.83-10.6-13.28-3.71-20.18,5-5,12.3-7.36,19-8.94a1.14,1.14,0,0,0,.27-2.06,53.66,53.66,0,0,0-35.54-9.36c-5.26.52-11.73,2.66-16.82.35-8-3.64-.78-11,2.59-14.91,4.33-5,6.71-11.76.57-16.46-6.42-4.9-18.41-4.45-21.77-12.83-.53-1.33-2.7-.75-2.17.6,3.23,8.06,12.83,9,19.73,12.36,5.26,2.59,7.53,7,3.95,12.35-2.46,3.64-6.45,6.4-8.11,10.57-3.75,9.43,7.15,11.92,14,11.29s13.47-1.83,20.5-.78a52.17,52.17,0,0,1,21.89,8.76l.27-2.05c-10.32,2.45-27.81,9.28-24.14,23.08,4.09,15.36,33.76,14.15,31.46,32-.19,1.44,2.07,1.42,2.25,0Z" transform="translate(-412.98 -722.08)"/><path class="cls-6" d="M1027,1238.8c.64-7.09,2.3-18.26,10.38-20.65,6.52-1.93,13.9,3.27,19-3.18,9.94-12.5-7-25.81-10.64-36.68l-1.08,1.42a36.46,36.46,0,0,1,36.55,20.39c2.65,5.62,1.8,14.67,7,18.74,3.6,2.83,8.24,1.92,12-.11,5.83-3.16,8.83-8.7,13-13.59,2.63-3.1,5.95-6.52,10.22-6.88,5-.43,7.91,3.33,9.95,7.34,2.7,5.32,4.46,10.77,9.36,14.55,5.13,3.94,11.64,5.54,17.82,7,1.4.33,2-1.84.59-2.17-7.83-1.83-16.62-4-21.27-11.19-3.18-4.92-4.28-11.49-8.95-15.36-10.67-8.87-19.49,6.35-25.34,13.06-2.54,2.92-6.06,5.83-9.93,6.69-7.56,1.68-8.64-5.65-9.75-11a35.88,35.88,0,0,0-7.29-15.39c-8.1-10.06-21-15.76-33.9-14.27a1.14,1.14,0,0,0-1.09,1.42c2.47,7.44,8.3,12.73,11.59,19.7a16.92,16.92,0,0,1,1.13,11.6c-1.82,6.28-7.15,6.3-12.7,5.62-13.9-1.7-17.84,11.53-18.88,23-.13,1.44,2.12,1.43,2.25,0Z" transform="translate(-412.98 -722.08)"/><path class="cls-6" d="M1086.73,1354.18c-7.34,7.09-3.39,18.27,2,25.32,4.09,5.34,9.44,9.83,12.41,16,4.42,9.16-.7,17.17-6.31,24.32a1.14,1.14,0,0,0,0,1.59c6.45,6.35,16.68,5.94,23.85.92a16.9,16.9,0,0,0,7-9.91c1.45-6.45-2.94-17.87,6.91-18.82,7.33-.7,13.4,5.3,14.89,12,1.93,8.61-.91,17.37-.36,26,.59,9.24,6,20.36,16.56,20.22a1.13,1.13,0,0,0,0-2.25c-7.74.1-12.12-7-13.69-13.8-1.78-7.72.43-15.7.38-23.49-.05-9.89-4.5-19.67-15.42-20.87-3.35-.36-6.85.45-9.1,3.12-3.74,4.44-1.68,10.25-2.09,15.44-1,12.48-18.65,18.39-27.34,9.83v1.59c7.63-9.72,12.1-19.62,4.46-30.76-6-8.74-24.23-23.59-12.57-34.86,1-1-.55-2.6-1.59-1.59Z" transform="translate(-412.98 -722.08)"/><path class="cls-6" d="M889.62,1439.84l-.24,7.51c-.07,2.17.44,5.48-.25,7.52-2.42,7.23-10.41-.68-12.74-3.66-2.9-3.72-6.95-9-12.37-8.08-5.2.85-6.77,6.33-6.17,10.89,1.1,8.39,9.1,13.62,6.69,22.72-1.27,4.79-3,9.77,1,13.76,3.17,3.16,8.25,3.84,12.43,4.64,5.8,1.11,14.13,2.07,16.38,8.61,3.69,10.69-8.82,17.22-16.56,20.78-1.31.6-.17,2.54,1.14,1.94,8.7-4,20.86-11,17.76-22.67-2.28-8.56-12.41-9.69-19.7-11.13-4.15-.82-9.68-1.73-11.39-6.18-1.48-3.81,1-7.66,1.62-11.38a14.07,14.07,0,0,0-.84-7.48c-2.15-5.67-8.1-11.39-6.22-18,3.54-12.44,14.15,3.68,17.92,6.85,2.81,2.35,7.42,4.78,11,2.72,2.37-1.35,2.16-2.8,2.24-5.29l.46-14.09c0-1.45-2.2-1.45-2.25,0Z" transform="translate(-412.98 -722.08)"/><path class="cls-6" d="M851.79,1311.93l-12.06-20.47c-2.28-3.86-4.9-11.13-9.66-12.7-9.39-3.08-14,17.47-15.13,23.27-.61,3.08-.46,7.15-2.23,9.86-3,4.57-8.54,2.31-12.1,0-4.59-3-7.84-7.54-13-9.67-3.74-1.54-8-1.48-10.79,1.75-3.42,3.9-2.46,19-10.48,17.2-1.41-.32-2,1.85-.6,2.17,13.1,2.91,6.76-20.38,17.67-19.92,10,.42,16.16,16.94,27.28,12.9,3.87-1.4,5-5.18,5.67-8.9,1.18-7,2.77-13.59,5.9-20a30.77,30.77,0,0,1,1.87-3.49c2.35-3.49,6.34-3.07,8.59.11,2.08,3,3.75,6.29,5.58,9.4l11.57,19.65a1.13,1.13,0,0,0,1.95-1.14Z" transform="translate(-412.98 -722.08)"/><path class="cls-6" d="M1086.77,1314.16c4.15-12.08,21.37-15.87,30.29-6.82a1.14,1.14,0,0,0,1.88-.5c1.41-5.25-1.22-9.87-3.79-14.3-1.43-2.44-3.16-5-3.84-7.74-1.5-6.17,4.1-9.33,9.64-8,15.22,3.6,18.68,24.54,24.34,36.5,5,10.47,15.85,23.06,28.86,20,10.93-2.57,15.89-15.94,10.54-25.4a1.12,1.12,0,0,0-1.94,1.13c4,7,1.48,17-5.81,20.85-8,4.29-16.74-.62-22.27-6.56-10.14-10.89-11.37-26.51-19.81-38.43-4.57-6.46-18.06-16.85-24.74-6.91-6.34,9.44,9.26,18.56,6.65,28.28l1.88-.49c-10.16-10.31-29.36-5.82-34.05,7.81-.47,1.37,1.71,2,2.17.6Z" transform="translate(-412.98 -722.08)"/><path class="cls-6" d="M879.43,1253.51a61.1,61.1,0,0,0-40-43.8c-7.9-2.57-18.16-3.85-20.41,6.25-.79,3.55-1.84,6.39-5.71,7.46a11.78,11.78,0,0,1-8.93-1.48c-6.2-3.84-7.5-12.55-8.62-19.13-.24-1.42-2.41-.82-2.17.6,1.48,8.7,4,20.15,14.16,22.26a12.21,12.21,0,0,0,9.54-1.65c4.83-3.48,2.5-11,8.24-13.35s13.82,1,19,3.43a58.91,58.91,0,0,1,32.73,40c.33,1.41,2.5.81,2.17-.6Z" transform="translate(-412.98 -722.08)"/><path class="cls-6" d="M943.62,1460.52c-1.91,7.22,3.46,13,7.52,18.33,2.3,3,5.2,6.65,5.09,10.67-.17,5.67-6,7.9-10.25,10-6.74,3.36-11.81,8.57-8.36,16.53,3,6.82,23.23,21.92,11.92,29.52-1.2.8-.07,2.75,1.14,1.94,7-4.67,3.67-13.94-.6-19.41-4-5.08-11.13-9.7-11.4-16.77-.26-6.7,6.83-8.91,11.62-11.42,6.19-3.25,10.06-8.55,7-15.54-3.23-7.45-13.91-14.3-11.54-23.29a1.13,1.13,0,0,0-2.17-.6Z" transform="translate(-412.98 -722.08)"/><path class="cls-6" d="M1021.1,1443.33c-1.55,7.08,5.08,11.92,11.46,12.87,5.4.8,10.81-1.28,16.14-1.73,5.74-.48,13.12,1.71,13.33,8.7.2,6.52-7.89,4.24-11.36,7.58-2.11,2-2.39,5-2.31,7.75.11,4,1.42,8.34.15,12.23-1.76,5.41-8.07,5.07-12.69,4.79-4.8-.29-12.2-1.62-14.75,3.82-3,6.45,4.17,10.62,9.37,12.05,4.44,1.22,9.07.94,13.24,3.16,3.65,2,6,4.86,3.07,9-1.31,1.82-3.26,2.91-4.19,5.07-2.33,5.37,2.4,10.1,7.09,11.93,9,3.51,15.81-2.69,21.06-9.4,3.72-4.76,7.09-10.51,12.77-13.16,5.16-2.42,13.28-3.08,15.82,3.3.52,1.33,2.7.75,2.17-.6-2.3-5.79-8.11-7.42-13.91-6.35-8.45,1.57-13,8.08-17.89,14.49-3.25,4.24-7.33,9.59-13,10.41-4.71.7-13.62-2.59-12.4-8.77.74-3.79,5.48-5.34,6.13-9.34.48-2.89-1.12-5.28-3.32-7a21.38,21.38,0,0,0-9.88-3.85c-4.46-.72-11.36-1-13.8-5.68-5.26-10,14.87-6.19,19.1-6.84,6.57-1,9-6,8.67-12.2-.16-3.55-1.86-9.11.34-12.3,2.6-3.76,8.49-1.7,11.38-5.25,4.17-5.12-1-13.07-6.21-15-4.78-1.79-10.23-.41-15,.41-6.14,1-20.65.93-18.38-9.4.31-1.41-1.86-2-2.17-.6Z" transform="translate(-412.98 -722.08)"/><path class="cls-6" d="M855.57,1385.6a18.24,18.24,0,0,0-16.5-13.14,1.15,1.15,0,0,0-1.09.82,41.92,41.92,0,0,0-2.8,13.49,22.1,22.1,0,0,1,.05,3.39c-1.55,1.7-4.05-.15-5.34-1-2.65-1.79-4.6-4.44-6.49-7-3.39-4.51-9.34-11.11-15.81-8.9-13.11,4.45,3,21.18,3.41,28.26.31,6.11-5.81,8.13-10.9,6.8-5.45-1.41-9-6.13-13.08-9.68-4.65-4.09-10.79-7.23-17-4.54-5.26,2.29-6.28,8-3.48,12.67,2.05,3.4,5.25,5.92,7.59,9.1,3.9,5.29,3.85,11.59,2.82,17.81-1.47,8.93-4.49,17.34-1.63,26.34,2,6.2,6.3,11.38,13.21,11.31a1.13,1.13,0,0,0,0-2.25c-8.35.09-11.73-8.86-12.21-15.94-.5-7.29,2.31-14.36,3.19-21.52.83-6.8-.1-12.94-4.52-18.32-2.24-2.71-5.17-5.07-6.84-8.21-3.16-6,2.19-10,7.71-9.66,11.34.67,20.47,22.91,33.68,14,8.65-5.87.15-16.94-3-23.28-1.59-3.22-3.36-8,.76-10.27,5.71-3.19,11.64,4.14,14.55,8,3.72,5,8.15,10.06,14.91,9a1.13,1.13,0,0,0,.83-1.08c-.3-3.7-1-15.16,2.94-16.62,2.46-.91,6.23,1.73,8,3.25a16.31,16.31,0,0,1,4.87,7.71,1.12,1.12,0,0,0,2.17-.59Z" transform="translate(-412.98 -722.08)"/><path class="cls-6" d="M982.13,1215.4c-2.07-1.83-4.61-3.84-5-6.75-.77-5.38,4.8-4.78,8-6.41a6.33,6.33,0,0,0,3.26-4.89c1.11-7.12-5.2-10.66-10.09-14.23-2.63-1.91-4.79-3.83-5.39-7.15-1-5.49,3.88-5.4,8.1-5.5,2.72-.06,4.6.11,6.92-1.52,4.54-3.19,6-9.86,3.93-14.84-3-7.19-10.8-10.23-17.8-11.83-6.31-1.44-12.35-4.72-11.88-12.3.48-7.78,8.27-11.21,15-9.73,7.43,1.62,15.2,7.84,23.13,6.3,2.4-.46,4.33-1.74,4.83-4.24.3-1.47-.18-2.91-.36-4.36a9.83,9.83,0,0,1,4.27-10c5.69-3.91,12.56-2,17.09,2.7,3.82,4,5.24,9.16,6.26,14.44,1.47,7.61,2.34,16.19,9.71,20.44a1.13,1.13,0,0,0,1.13-1.95c-8.91-5.13-7.37-17.64-10.44-26.15-2.54-7.06-8.82-13.9-16.84-14-6.54,0-13.5,5.18-13.68,12-.1,3.65,3.09,7.81-3.69,8.87-2.59.4-5.92-.93-8.29-1.78-4.6-1.64-9-4.09-13.9-4.85-7.39-1.16-14.81,2.91-16.28,10.61-1.73,9.1,5.56,14.26,13.34,16,5.35,1.23,10.72,3,14.33,7.39,3.79,4.64,3.94,13.91-2.91,16.2-3.9,1.3-8.2-1.81-11.88.82-2.28,1.64-2.8,4.65-2.39,7.26.59,3.77,2.94,6.28,5.91,8.48,2.75,2,6.35,3.73,8.3,6.66a8,8,0,0,1,1.41,4.72c-.28,3.73-2.56,4.29-5.84,4.75-3,.43-5.09,2-5.72,5.06-1,4.75,2.68,8.34,5.91,11.21,1.08,1,2.68-.63,1.59-1.6Z" transform="translate(-412.98 -722.08)"/></g><circle id="pupil" class="cls-7" cx="554.02" cy="617.91" r="125.87"/></g><g id="green_dots" data-name="green dots"><circle class="cls-8" cx="706.38" cy="1039.28" r="4.37"/><circle class="cls-8" cx="652.47" cy="981.43" r="4.51"/><circle class="cls-8" cx="264.57" cy="931.26" r="2.55"/><circle class="cls-8" cx="460.69" cy="1117.59" r="4.67"/><circle class="cls-8" cx="340.02" cy="1092.92" r="4"/><circle class="cls-8" cx="116.52" cy="837.42" r="2.5"/><circle class="cls-8" cx="909.27" cy="1115.25" r="2.34"/><circle class="cls-8" cx="993.37" cy="1065.23" r="5.25"/><circle class="cls-8" cx="950.12" cy="1092.92" r="4"/><circle class="cls-8" cx="999.76" cy="1103.3" r="6.39"/><circle class="cls-8" cx="1136.24" cy="1062.6" r="2.62"/><circle class="cls-8" cx="1093.11" cy="1073.48" r="3"/><circle class="cls-8" cx="1233.03" cy="962.6" r="5.69"/><circle class="cls-8" cx="1215.99" cy="1001.95" r="4.97"/><circle class="cls-8" cx="1270.69" cy="989.45" r="8.02"/><circle class="cls-8" cx="1364.58" cy="931.69" r="2.98"/><circle class="cls-8" cx="1310.45" cy="959.76" r="2.84"/><circle class="cls-8" cx="1298.51" cy="925.35" r="3.36"/><circle class="cls-8" cx="1355.27" cy="970.96" r="2.67"/><circle class="cls-8" cx="1433.76" cy="930.01" r="4.66"/><circle class="cls-8" cx="161.29" cy="872.11" r="4.12"/><circle class="cls-8" cx="187.91" cy="853.74" r="3.75"/><circle class="cls-8" cx="141.63" cy="787.08" r="5.47"/><circle class="cls-8" cx="150.16" cy="821.44" r="3.06"/><circle class="cls-8" cx="196.18" cy="807.93" r="4.52"/><circle class="cls-8" cx="230.9" cy="744.98" r="6.25"/><circle class="cls-8" cx="264.57" cy="795.1" r="2.55"/><circle class="cls-8" cx="251.35" cy="886.25" r="2"/><path class="cls-8" d="M741,1634.33v0Z" transform="translate(-412.98 -722.08)"/><circle class="cls-8" cx="199.84" cy="908.58" r="3.67"/><circle class="cls-8" cx="236.4" cy="1070.42" r="5.5"/><path class="cls-8" d="M833,1819.5v0Z" transform="translate(-412.98 -722.08)"/><circle class="cls-8" cx="389.52" cy="1082.42" r="6.5"/><circle class="cls-8" cx="458.35" cy="1091.25" r="2.34"/><circle class="cls-8" cx="552.02" cy="1124.26" r="2"/><circle class="cls-8" cx="586.02" cy="1124.26" r="2"/><circle class="cls-8" cx="1122.68" cy="1010.92" r="4"/><circle class="cls-8" cx="269.12" cy="1012.92" r="2"/><path class="cls-8" d="M637.64,1602.33v0Z" transform="translate(-412.98 -722.08)"/><circle class="cls-8" cx="218.61" cy="1046.61" r="2.96"/><polygon class="cls-8" points="230.9 1023.98 230.9 1023.98 230.9 1023.98 230.9 1023.98 230.9 1023.98"/><circle class="cls-8" cx="282.03" cy="1069.35" r="4.12"/><circle class="cls-8" cx="314.61" cy="1046.61" r="2.96"/><circle class="cls-8" cx="386.21" cy="1106.5" r="3.19"/><circle class="cls-8" cx="422.27" cy="1095.17" r="2.25"/><circle class="cls-8" cx="530.93" cy="1092.04" r="3.13"/><circle class="cls-8" cx="689.73" cy="1115.25" r="2.34"/><circle class="cls-8" cx="631.99" cy="1119.92" r="2.34"/><circle class="cls-8" cx="799.38" cy="1085.67" r="3.25"/><circle class="cls-8" cx="857.83" cy="1109.71" r="3.21"/><circle class="cls-8" cx="769.13" cy="1119.75" r="4.5"/><circle class="cls-8" cx="397.85" cy="906.75" r="1.83"/><circle class="cls-8" cx="427.31" cy="919.04" r="2.79"/><circle class="cls-8" cx="349.52" cy="863.42" r="1.5"/><circle class="cls-8" cx="369.02" cy="903.92" r="4"/><circle class="cls-8" cx="497.69" cy="970.96" r="2.67"/><circle class="cls-8" cx="518.27" cy="946.17" r="2.25"/><circle class="cls-8" cx="766.88" cy="890.5" r="2.25"/><circle class="cls-8" cx="823.27" cy="854.17" r="1.25"/><circle class="cls-8" cx="1049.14" cy="888.37" r="2.12"/><circle class="cls-8" cx="1091.61" cy="894.25" r="1.5"/><circle class="cls-8" cx="1068.02" cy="901.92" r="2"/><circle class="cls-8" cx="1049.14" cy="914.37" r="2.12"/><circle class="cls-8" cx="139.88" cy="861.2" r="3.71"/><circle class="cls-8" cx="168.16" cy="909.5" r="2.75"/><circle class="cls-8" cx="215.83" cy="939.99" r="6.18"/><circle class="cls-8" cx="96.91" cy="854.17" r="1.25"/><circle class="cls-8" cx="138.9" cy="763.32" r="2.73"/><circle class="cls-8" cx="153.35" cy="744.98" r="6.25"/><circle class="cls-8" cx="169.54" cy="782.99" r="1.38"/><circle class="cls-8" cx="121.9" cy="800.53" r="2.88"/><circle class="cls-8" cx="156.47" cy="800.78" r="3.12"/><circle class="cls-8" cx="177.53" cy="828.06" r="6.62"/><circle class="cls-8" cx="355.03" cy="878.24" r="2"/><circle class="cls-8" cx="376.14" cy="887.37" r="3.12"/><circle class="cls-8" cx="392.47" cy="924.79" r="2.96"/><circle class="cls-8" cx="452" cy="937.83" r="4.02"/><circle class="cls-8" cx="422.27" cy="933.51" r="2.25"/><circle class="cls-8" cx="180.85" cy="684.08" r="3.31"/><circle class="cls-8" cx="186.05" cy="719.65" r="1.89"/><circle class="cls-8" cx="162.5" cy="702.74" r="2.91"/><circle class="cls-8" cx="239.15" cy="731.39" r="2.75"/><circle class="cls-8" cx="165.33" cy="772.79" r="2.83"/><circle class="cls-8" cx="1264.75" cy="1015" r="2.08"/><circle class="cls-8" cx="1313.85" cy="995.7" r="6.25"/><circle class="cls-8" cx="1238.19" cy="907.08" r="5.17"/><circle class="cls-8" cx="1397.13" cy="942.88" r="1.04"/><circle class="cls-8" cx="1441.41" cy="904.92" r="3"/><circle class="cls-8" cx="973.08" cy="848.45" r="4.46"/><circle class="cls-8" cx="943.26" cy="851.31" r="2.86"/><circle class="cls-8" cx="264.98" cy="860.45" r="2.96"/><circle class="cls-8" cx="284.09" cy="878.3" r="2.06"/><circle class="cls-8" cx="313.13" cy="881.72" r="1.48"/><circle class="cls-8" cx="290.83" cy="832.74" r="4.68"/><circle class="cls-8" cx="316.09" cy="920.52" r="1.48"/><circle class="cls-8" cx="285.93" cy="977.53" r="3.9"/><circle class="cls-8" cx="382.74" cy="971.77" r="3.47"/><path class="cls-8" d="M850.82,1703.82v0Z" transform="translate(-412.98 -722.08)"/><circle class="cls-8" cx="480.46" cy="946.17" r="2.25"/><circle class="cls-8" cx="234.59" cy="779.3" r="3.69"/></g><g id="blue_dots" data-name="blue dots"><circle class="cls-9" cx="1380.22" cy="914.37" r="2.12"/><circle class="cls-9" cx="1524.82" cy="887.12" r="5.63"/><circle class="cls-9" cx="1465.46" cy="925.35" r="3.36"/><circle class="cls-9" cx="1504.68" cy="903.5" r="3.58"/><circle class="cls-9" cx="1337.82" cy="915.44" r="1.06"/><path class="cls-9" d="M1646,1757h0Z" transform="translate(-412.98 -722.08)"/><circle class="cls-9" cx="1198.23" cy="992.58" r="3.12"/><circle class="cls-9" cx="1243.23" cy="981.43" r="4.51"/><circle class="cls-9" cx="1276.36" cy="954.09" r="5.67"/><circle class="cls-9" cx="1316.83" cy="973.94" r="2.98"/><circle class="cls-9" cx="1029.44" cy="904.33" r="2.42"/><circle class="cls-9" cx="1201.21" cy="881.27" r="2.97"/><circle class="cls-9" cx="1303.03" cy="852.97" r="4.52"/><circle class="cls-9" cx="1267.72" cy="835.71" r="2.97"/><circle class="cls-9" cx="1361.26" cy="794.21" r="3.32"/><circle class="cls-9" cx="1543.23" cy="786.26" r="4.64"/><circle class="cls-9" cx="1578.28" cy="814.68" r="3.69"/><polygon class="cls-9" points="1733.58 786.26 1733.58 786.26 1733.58 786.26 1733.58 786.26 1733.58 786.26"/><circle class="cls-9" cx="1703.93" cy="812.84" r="1.85"/><circle class="cls-9" cx="1774.43" cy="812.84" r="1.85"/><circle class="cls-9" cx="1044.68" cy="1075.81" r="2.34"/><circle class="cls-9" cx="1166.79" cy="945.13" r="3.29"/><circle class="cls-9" cx="1004.73" cy="774.2" r="1.41"/><circle class="cls-9" cx="924.52" cy="648.82" r="2.68"/><circle class="cls-9" cx="1001.93" cy="684.08" r="3.31"/><circle class="cls-9" cx="968.62" cy="678.28" r="2.48"/><circle class="cls-9" cx="985.92" cy="745.97" r="2.19"/><circle class="cls-9" cx="1401.23" cy="821.44" r="3.06"/><circle class="cls-9" cx="694.07" cy="1094.92" r="2"/><circle class="cls-9" cx="880.17" cy="1110.88" r="4.38"/><circle class="cls-9" cx="932.87" cy="1118.59" r="5.67"/><circle class="cls-9" cx="1033.17" cy="1061.29" r="1.31"/><circle class="cls-9" cx="1156.5" cy="1050.65" r="7"/><circle class="cls-9" cx="467.11" cy="970.96" r="2.67"/><circle class="cls-9" cx="313.13" cy="1070.83" r="1.48"/><circle class="cls-9" cx="183.45" cy="746.38" r="2.6"/><circle class="cls-9" cx="150.16" cy="683.82" r="3.06"/><circle class="cls-9" cx="252.85" cy="1047.15" r="3.5"/><circle class="cls-9" cx="504.2" cy="1122.42" r="3.84"/><circle class="cls-9" cx="220.31" cy="820.08" r="1.7"/><circle class="cls-9" cx="1134.92" cy="972.28" r="1.31"/><circle class="cls-9" cx="852.61" cy="805.92" r="2.01"/><circle class="cls-9" cx="899.39" cy="769.42" r="3.37"/><circle class="cls-9" cx="914.98" cy="721.12" r="3.37"/><circle class="cls-9" cx="948.12" cy="792.9" r="2"/><circle class="cls-9" cx="838.37" cy="1085.67" r="3.25"/><circle class="cls-9" cx="1030.7" cy="977.72" r="2.48"/><circle class="cls-9" cx="968.62" cy="942.47" r="2.48"/><circle class="cls-9" cx="1085.07" cy="932.79" r="5.04"/><circle class="cls-9" cx="904.85" cy="1004.04" r="2.09"/><circle class="cls-9" cx="193.92" cy="678.06" r="2.26"/><circle class="cls-9" cx="174.86" cy="648.82" r="2.68"/><circle class="cls-9" cx="235.03" cy="707.18" r="4.13"/><circle class="cls-9" cx="239.69" cy="840.7" r="3.29"/><circle class="cls-9" cx="127.92" cy="824.92" r="3.14"/></g></g><g id="outline"><g id="outline-2" data-name="outline"><path class="cls-10" d="M967.58,1268.32c-39.6-.37-71.86,31.76-71.88,71.6s32.11,72,71.72,71.76a71.69,71.69,0,0,0,.16-143.36Z" transform="translate(-412.98 -722.08)"/><path class="cls-10" d="M1915.12,1335a631.74,631.74,0,0,0-86.87-25.92c-47.65-10.47-95.75-15.66-144.63-13.66-31.73,1.3-62.76,6.46-93.5,14-17.52,5.53-34.68,12.07-51.81,18.7-14.94,8.18-30.29,15.65-44.48,25.16-1,.68-2.5.64-3.76.93-.47.85-.74,2-1.45,2.5-14.73,10.15-28.06,22-41.73,33.48-4.39,5.57-10.9,9.76-11.54,17.77.3,2.63.27,5.35,1,7.88a19.9,19.9,0,0,0,29.61,11.5c3.32-2.09,6.11-5.08,9-7.82,30.69-29.35,66.25-50.71,106.19-64.91a14.78,14.78,0,0,1,2.93-.41c17.72-7.37,36.46-10.81,55.22-14.15,4.18-.75,8.45-1,12.68-1.53,21.28-3.07,42.62-4.62,64.11-2.81,11.42-.19,22.84-.54,34.08,2.08,21.71.52,42.86,4.94,64,9.19,10.06,2,20.18,3.93,30.38,7.67-4.71,3-9.61,4-14.22,5.68-32.84,11.85-65.29,24.63-96.35,40.7a27.52,27.52,0,0,1-3.74,1.3c-14.18,9-28.94,17-42.36,27.23-31.24,30.59-60.82,62.94-94.88,90.56-12.09,9.8-24.49,19.21-38.87,25.54-9.83,4.42-19.27,9.78-30.22,11.25-3.3.44-6.53,1.26-9.87.59-16.15,1.58-29.92-4.48-42.82-13.33-6.91-4.72-12.54-10.89-18.76-16.39-8.64-7.66-20.22-7.08-27.81.86-7.16,7.49-7.32,18.87-.31,27.2,1.49,1.78,3.27,3.32,4.86,5s3.07,3.43,4.6,5.16a33.09,33.09,0,0,1,3.27,2.17c39.28,33.7,82.31,38.2,128.81,16.81,13.33-6.14,25.42-14.3,37.76-22.06,30-22.9,56.89-49.21,83.42-75.92,1.37-1.37,2.48-3.19,4.71-3.41,8.66-10.62,18-20.47,29.63-28,11.92-9.44,25.31-16.34,39.05-22.64a411.13,411.13,0,0,1,59.47-25.49c17.53-8,35.94-13.67,54.24-19.59,9.77-3.16,19.32-7.22,29.65-8.43,2-2.49,5.32-2.85,7.92-3.27,10.06-1.63,16.33-7.49,20.42-16.32C1932.89,1347.23,1927.05,1339.52,1915.12,1335Z" transform="translate(-412.98 -722.08)"/><path class="cls-10" d="M1691.73,1483.68h0l0,0Z" transform="translate(-412.98 -722.08)"/><path class="cls-10" d="M1695.88,1388c.51-.31,1.3-.16,1.95-.23a65.09,65.09,0,0,0,5.61-3.74c5.64-4.65,6-7.66,2.12-15-3.38-1.15-6.58-1.11-9.25,1.62a24.94,24.94,0,0,1-5.64,3.94c-18.94,11.11-39.43,19.13-58.75,29.47-7.23,3.87-14.61,7.52-21.68,11.66-16.34,9.58-34.32,14.9-52.16,20.63-3.38,2.22-7.29,3.08-11.08,4.19q-47.4,13.88-94.82,27.62c-5.18,1.51-7.81,4.22-7.27,7.94s3.93,6.14,9,6a39.18,39.18,0,0,0,13.62-2.87c25.45-10.07,52.23-15.56,78.47-22.88,15.17-5.43,30.25-11.14,45.54-16.18,10.69-3.53,20.08-9.66,30.36-13.94,5.85-4.47,13-6.5,19.21-10.29C1658.65,1405.18,1678.32,1398.63,1695.88,1388Z" transform="translate(-412.98 -722.08)"/><path class="cls-10" d="M1614.21,1459a94,94,0,0,1-21,11.19c-6.08,2.17-10.37,7.07-16.17,9.71a187.2,187.2,0,0,1-40.63,13.27c-13.26,3.09-26.58,5.62-40.3,5.36-9.29-.17-18.59-.06-27.89,0a30.65,30.65,0,0,0-6.92.51c-3.5.84-6,3-5.94,6.94s2.51,6.08,6.2,6.61a60.21,60.21,0,0,0,8,.35c19.56.14,39.13.53,58.52-2.72l35.21-8.74c19-7.44,36.3-18.4,54.5-27.52,3.81-1.91,7-4.27,6.16-9C1622.92,1459.67,1619.09,1458.27,1614.21,1459Z" transform="translate(-412.98 -722.08)"/><path class="cls-10" d="M1280.41,1255.9c-.78-2.54-1.64-5.06-2.34-7.63a329.23,329.23,0,0,0-25.44-64.93c-16.16-31-37.23-58.21-62.37-82.52a306.49,306.49,0,0,0-78-55.16c-53.12-26.17-109.13-36.81-168.41-32.24-50.18,3.88-96.39,19-139.42,44.51-44,26.08-78.27,62.23-106.82,104.2-11.07,20.83-22,41.74-30.15,63.94a399.11,399.11,0,0,0-16,71.88c.51,10.87-1.89,21.61-1.22,32.52.65,10.47.69,21,1,31.48q2.25,16,4.49,32.06c.65,2.23,1.43,4.43,1.92,6.7,6.3,29.1,16.91,56.55,30.85,82.84,7.49,14.13,16.74,27.08,25.29,40.5,2.76,1.42,3.78,4.46,5.52,6.67,11.75,14.92,26.3,27.15,38.87,41.26a12.24,12.24,0,0,1,2.59,1.36,307.76,307.76,0,0,0,74.38,47.92c69.13,31.83,140.67,37.28,214.22,19.49,40.9-9.9,77.66-28.85,111.9-53,13.82-11.4,27-23.57,39.92-35.9,15-16.85,29.17-34.27,40.92-53.61,21.6-35.53,35.5-73.89,42.87-114.72,1.32-6.49.29-13.34,3-19.63l.81-45.85q-2-19.78-4-39.56ZM969.47,1610.33c-151.57-1-278.85-120.75-278.58-279.36.26-155.22,123.46-278.55,279.56-278.08,157.89.47,278.94,127.95,277.65,281.06S1123.27,1609.28,969.47,1610.33Z" transform="translate(-412.98 -722.08)"/><path class="cls-10" d="M2867.33,2008.45c-1-9.26-2.18-18.51-3.07-27.78a760.76,760.76,0,0,0-16.76-103.42c-5.19-21.72-11.61-43.2-24.5-61.86-8.9-12.87-18.14-25.52-28.11-37.62-37.19-45.11-78.64-86.12-121.3-126a163.49,163.49,0,0,1-20.58-23q-56.09-76.63-112.6-152.93c-4.32-5.81-4.94-10.36-2-17q42.95-96.7,85.26-193.69a68.21,68.21,0,0,1,8.07-13.7c28.43-37.82,56.93-75.6,85.14-113.58,16.28-21.92,33.67-43,48.35-66.14q34.29-54,68.67-107.89c5.66-8.87,7-18,1.88-27.38s-13.51-13.06-24.13-12.89c-14.41.23-28.67,1.74-42.47,5.67-73.2,20.87-137.79,56.18-189.25,113.42-45.7,50.84-88.24,104.32-131.72,157-35,42.41-69.65,85.13-107.44,125.15a327.24,327.24,0,0,1-29.69,28.23c-3.57,2.94-7.11,4.2-11.86,3.27-9.14-1.79-18.43-2.83-27.61-4.45-17.66-3.11-35.36-6-53.24-10.37,2.93-2.29,5.91-2.75,8.77-3.53l43.32-11.86c23.88-6.54,38.64-28.08,36.35-52.68-1.56-16.85-9.09-31.14-18.43-44.72-14.08-20.45-31.43-38-49.62-54.67-39.84-36.6-83.14-68.83-127.36-99.85-102.61-72-209.54-137.1-317.87-200-37.43-21.72-75.67-42.08-112.77-64.34-72.5-43.51-149.37-74.46-233.75-84.94a359.34,359.34,0,0,0-104.57,2q-83.68,14.14-148.54,68.9c-3.68,3.12-6.65,4-11.38,2.15-40-15.75-80.82-28.88-122-41-23.93-7.06-47.68-14.88-71.92-20.7-30.82-7.41-62.36-10.72-94.08-11.34-47.12-.91-93,5.61-136.83,23.72-67.17,27.78-116,75.52-149.79,139.27-14.71,27.79-26,56.86-31.32,88q-4.92,29.06-9.81,58.11C557.85,1086.9,549,1139.77,540,1192.59c-8.74,50.84-16.25,101.9-28,152.2-11.85,50.9-24.37,101.6-42.09,150.84-6.66,18.49-14,36.72-24.32,53.54-4,6.52-8.6,11.68-16.7,14.52-17.74,6.23-21.3,28.92-7.28,41.56a88.52,88.52,0,0,0,8,6c43.68,31.14,87.31,62.35,130.24,94.51,2.28,1.71,5.11,2.91,6.34,5.66-.86,2.33-2.91,3-4.56,4-22.55,13.55-45.16,27-67.71,40.54-17.88,10.73-20,28.35-5.21,43.24a148.87,148.87,0,0,0,23.43,18.65c27.36,18.19,57.21,31.23,88.08,42,75.59,26.45,154,39.44,233.23,48,40.76,4.4,81.65,7.1,122.62,8.77,73.31,3,146.61,2.55,219.93.21,31-1,61.9-3.48,92.93-2.85,4.9.1,7.79.9,9.32,6.29,2.3,8.1,7.36,14.86,13.17,21,9.33,9.81,20.62,16.8,32.75,22.52,20.6,9.72,42.44,15.6,64.62,20.23,32,6.68,64.4,10.53,97,12.78,41.26,2.85,82.53,4.7,123.86,1.49a41,41,0,0,0,11.73-2.23c7.84-3.06,12.35-8.68,13.19-17.19,1-9.85-3.76-16.61-11.68-21.5a109.84,109.84,0,0,1-27.28-23.22c-18.49-22.36-30.48-48.19-40.9-75.91,11.47-4.49,22.57-8.8,33.64-13.19,46.38-18.4,92.21-38.23,139.76-53.58,2.79-.91,5.07-2.28,8.46-1.11a102.83,102.83,0,0,1,54.08,42.18,203,203,0,0,1,23.13,49.62,303.35,303.35,0,0,1,12.29,57.51c1.5,12.87,11.59,20.54,23.74,18.36,7.12-1.28,11.62-5.8,14.89-12.09q12.67-24.37,27.21-47.7c19.67-31.41,40.85-61.66,67.29-87.9,14.38-14.28,30.69-25.4,49.81-32.45,16.88-6.22,34.08-11.34,51.45-15.94,33.76-9,67.93-16.43,100.95-28,24.94-8.76,48.93-19.38,69.29-36.77,17.5-14.94,29.41-33.37,34.48-56a111.49,111.49,0,0,0,.34-46.65c-1.08-5.38.58-7.19,5.31-7.92q21.71-3.33,43.41-6.79c4.48-.72,8.4.38,12.51,2.2a386.76,386.76,0,0,1,91.49,56.5c32,26.7,63.05,54.49,93.68,82.73,47.75,44,95.85,87.58,137.79,137.6,48.93,58.35,107.71,106,170.4,148.88a149.23,149.23,0,0,0,32.64,17.13c9.39,3.44,15-.65,14.93-10.44A59.58,59.58,0,0,0,2867.33,2008.45Zm-1591.56-1207c22-12.05,45.29-20.32,70.22-23.68,12.41-4,25.38-4.27,38.16-5.18,23.85-1.69,47.59.5,71.21,3.83,2.44.35,5.45.1,6.78,3.13,12.72,0,24.76,3.86,37,6.67,48,11.06,92.65,30.62,135.39,54.62,45,25.27,89.67,51.08,134.34,76.9,71.5,41.31,142.21,84,211.54,128.83,20.81,13.48,40.44,28.84,61.58,41.76,36.08,22,69.46,47.75,103.38,72.77,5.83,4.3,10.62,9.67,16.12,14.27,2.35-.48,3.63,1.3,5.11,2.51,18.07,14.74,36.14,29.54,52.21,46.47,10.62,11.2,20.12,23.47,30.1,35.29a20.36,20.36,0,0,1,1.59,2.53c8.89,14.34,8.36,15.62-8,19.73-6.74,1.69-13.47,3.44-20.19,5.16-13.92,4.23-27.8,8.58-42.14,11.23-11.09,4.57-22.92,6.62-34.36,10-5.46,1.6-11.1,3.09-14.82,7.71-2.8,3.48-5.62,3.43-9.6,2.33-40.12-11.1-79.6-24.13-118.58-38.71a3,3,0,0,1-2.3-2.71,55.92,55.92,0,0,1,19.92-13c12.08-4.88,23.13-11.74,34.81-17.37,5.87-2.82,10.59-6.87,13.51-12.8,1.61-6.56.39-12.44-4.29-17.41-5.4-5.72-12.89-6.84-20.87-3.2-5.08,2.32-10.14,4.68-15.21,7-4.46,4.81-10.62,6.63-16.34,9.14-10.37,4.55-20.46,9.47-29.43,16.56-8.23,6.52-18.82,8.1-28,12.74-1.66.84-3.22.38-4.76-.3l-31.47-13.77c0-1.41-.25-2.31,0-2.55,16.55-13.71,28.85-31.09,41.72-48,2.2-2.89,4.71-5.54,7.08-8.3,7.38-11,11-23.65,15.5-35.93a61,61,0,0,0,1.12-6.78,16.76,16.76,0,0,0-8.27-15.78,15.91,15.91,0,0,0-17.71-.22c-1.68,1-3.23,2.23-4.84,3.36-4.51,7.11-5.81,15.45-8.76,23.15-1.26,3.32-1.57,7.27-5.65,8.78a8.64,8.64,0,0,1-2,5.48c-9.57,11.92-18.94,24-28.65,35.81-6.82,8.29-16.28,13.58-24.45,20.34a5.21,5.21,0,0,1-6.35.77c-21.33-10.72-42.37-22-63.81-34.63,10.84-10.89,21.18-20.91,33.92-28a146.79,146.79,0,0,0,31.58-24c1.88-1.84,3.85-3.69,6.58-4.3,9.16-9.79,17.85-20.07,28.29-28.6.12-3.61,3.36-5.45,4.83-8.36,3.17-6.32,2.89-12.12-1.17-17.55-4.25-5.68-10.24-8.71-17.29-6.84-6.28,1.66-12.57,4.18-15.64,10.75a7.9,7.9,0,0,1-3.83,4.22c-6.95,7.33-13.64,14.94-21.84,21-7.9,9.15-17.4,16.3-27.65,22.63-14.18,8.74-27.67,18.43-39.3,30.48a26.92,26.92,0,0,1-7.17,5.32c-3.61,1.85-6.68,2-10.2-.42-12.36-8.45-24.87-16.67-38.59-25.83,8-7.21,15.61-13.49,24.09-18.27a79,79,0,0,0,12.35-8.1c7.55-6.37,8.85-15.86,3.7-23.25s-14.18-9.3-23.11-5.22c-13.18,6-24.19,15.21-35.26,24.2-12,9.75-11.13,8.14-21.37-.53-4.54-3.84-9.11-7.64-14.41-12.09,30.5-13.57,58.51-30.06,88-43.72,2.72-3.43,6.82-4.79,10.44-6.79,4.93-2.73,8.7-6.62,12.3-10.78.81-2.85,1.75-5.65,1.69-8.71a17.26,17.26,0,0,0-24.89-15.2c-3.87,1.82-6.82,5.34-11.25,6.15-10,8.56-22.26,12.77-34.08,17.82-19.17,12.08-39.1,22.62-60.72,29.7-1.26.41-2.8.5-3.74,1.29-8.74,7.43-15.36,2.52-22.52-3.09-12.55-9.84-25.56-19.1-40-29.78,31.19-9.3,61.78-15.31,90.65-26.83,9.28-5.56,20.16-8.31,28.19-16.06,1.41-2.24,3-4.37,4.2-6.73,3.58-7.17,2.23-14.53-3.49-20-5.53-5.28-14.06-7.11-20.08-2.32-8.45,6.72-18.81,8.95-27.84,14.11-13,6.63-27.41,8.89-41.16,13.22-5.61,1.77-11.51,2.64-17.28,3.91-10.77,3.35-21.35,7.69-32.35,9.78-11.27,2.14-22.54,2.64-33-5.56-13.58-10.62-28.4-19.65-42.65-29.42-2.4-1.65-5.39-2.65-6.91-5.86,16.62-3.78,32-11.3,48.63-14.58,9-4.73,18-9.64,27.12-14.1a60.81,60.81,0,0,0,12.37-8,47.1,47.1,0,0,0,2.26-6.49,17.28,17.28,0,0,0-22.32-20.15c-6.53,2-12.64,5.43-18.94,8.2-13.84,9.43-30.08,12.45-45.72,17.05l-44.26,11c-2.15.54-3.85-.42-5.59-1.46q-38.92-23.39-77.84-46.75c-.25-.15-.36-.55-1.09-1.77,17.41-4.47,34.53-8.71,52.12-10.87,7.16-3.73,15.06-4.81,22.84-6.2a28.19,28.19,0,0,0,16.33-8.57c1.08-4.09,3.08-8,2.09-12.48-2.09-9.63-11-15.78-21.56-14.52-3.24.39-6.33,1.94-9.71,1.31-15.36,5.37-31.24,8.32-47.25,11-8.43,1.39-16.66,4.08-24.91,6.41a17.07,17.07,0,0,1-5.83.59c-9.14,4.15-19.33,4.71-28.6,8.41-2.76,1.11-5.19-.3-7.56-1.53q-36.78-19-74.6-35.89C1247.84,816.46,1261.71,807.33,1275.77,801.48Zm286.57,1155.67c.3.39,0,1.2,0,2.4-8.76,0-17.63.29-26.48,0-41.25-1.59-82.41-4.39-123.13-11.6-22.62-4-45-9-66.28-18-9.36-4-18.7-8.24-26.57-17.25,13-1.46,24.69-2.74,36.39-4.12,7.93-.92,15.94-1.52,23.73-3.15,4.65-1,7.26.67,10.51,3.47,15.13,13,30.93,25.13,48.92,34.07,8.17,4,13.82,3.21,16.42-2.32,2.48-5.27.1-9.87-7.85-13.67-13.87-6.64-25.77-16-38.1-25.81,6-2.89,11.77-2.79,17.06-4.54,2.9-1,5.09.55,7.31,2.12,8.14,5.73,16.54,11.12,24.43,17.18,9.59,7.39,20.74,10.28,32.24,12.28,5.25.91,9-1.47,10.46-5.6,1.53-4.32-.57-8.87-5.72-11.32a30.5,30.5,0,0,0-9.45-3.06c-12.43-1.34-20.12-10.8-29.78-15.84-.15-2.8,1.44-3,2.51-3.3,17.5-5.27,35.09-10.28,52.51-15.8,4.24-1.35,5.83-.5,7.34,3.46C1529.79,1905.42,1543.41,1932.73,1562.34,1957.15Zm639.1-287.74c-13.05,10.08-27.76,17-43,22.95-28.32,11-57.82,17.89-87.13,25.47-25.13,6.5-50.23,13-74.65,22a179.07,179.07,0,0,0-64.4,40.92c-26.58,26.06-48.32,55.88-68.42,87l-8.52,13.22c-7.2-24.19-15.68-45.48-27.85-65.15-12-19.44-27.16-36-46.9-48.89,6.15-4.67,12.45-6.87,18.37-9.74,9.58-4.64,19.35-8.92,28.86-13.71,3.75-1.89,5.51-1.08,8.17,2.07,9.14,10.86,14.32,24,21.27,36,.82,1.43,1.25,3.11,2.15,4.48,3.74,5.71,10.14,7.63,15.57,4.81,5.21-2.72,7.68-8.36,5-14.53a236.83,236.83,0,0,0-15.48-30.15l-9.34-15c6.71-3.09,13-5.92,19.2-8.86,3-1.41,4.69,0,6.9,2,5.58,4.94,9.16,11.37,13.59,17.13,6.33,8.22,12.18,10.46,18.32,6.3s6.5-12.41.72-20.41c-1.94-2.69-4.41-5-6.3-7.7s-3.39-5.71-5.07-8.61c.43-.45.79-1.07,1.33-1.35,11.22-5.68,11.27-5.71,17.87,4.85,2,3.12,3.67,6.28,7.2,8,5,2.5,9.83,2.07,12.7-1.63,3.13-4.05,2.61-8.1-.64-11.8-3.07-3.48-6.05-7-7.6-11.25,1.71-2.37,4.07-2.85,6.15-3.72q54.84-22.83,110.53-43.51c5-1.86,8.47-1.76,12.46,2.09,7.62,7.36,16.44,13.44,21.63,23.17,1.65,3.09,4.75,5.59,7.64,7.77,4.48,3.38,9.95,3.17,13.84-.25s5.22-7.59,3.42-12.6c-1-2.84-2-5.83-4.49-7.65-4.46-3.32-6.16-8.66-9.78-12.55-3.36-3.6-6.79-7.15-10.67-11.23,6.33-3.54,13.37-5,20-7.39,3-1,5.06.48,7.1,2.39,13.52,12.74,29,23.36,40.6,38.18a16.21,16.21,0,0,0,4.62,3.74c5.58,3.29,11.75,2.43,15.39-2,3.42-4.13,3.6-9.83-.38-14.67a199.55,199.55,0,0,0-29.59-29.46c-2.56-2-5.74-3.42-7.45-6.47,10.81-6.7,11.17-6.31,20.37.24s16.42,15.52,25.34,22.47c2.36,1.84,4.54,4,7.09,5.48,5,2.94,10,2.23,13.74-1.52s4.3-9,1.52-13.78a15.46,15.46,0,0,0-3.75-4.58c-8.23-6.29-14.88-14.19-22.26-21.3,1.38-1.85,3.36-2.18,5.31-2.69,10-2.63,19.88-5.51,29.91-7.91,15.55-3.73,14-6.54,15.77,11.89C2229.64,1635.74,2220.26,1654.87,2201.44,1669.41Zm601.7,264.38a858.27,858.27,0,0,1-74.95-64.37,25.48,25.48,0,0,1-2.39-3.12c-17.52-15.31-32.66-32.87-47.5-50.69-6.34-7.63-12.27-15.6-18.39-23.41-13.24-11.58-25.63-24-37.76-36.74-14.06-12.37-27.43-25.46-40.41-39q-29.65-26.64-59.32-53.26c-28.41-25.58-56.88-51.09-86.88-74.85-30.77-24.37-65.38-41.88-101-57.74a27.42,27.42,0,0,0-15.62-1.85c-5.56.84-11.22,1-16.84,1.47l-50.28,9c-62,13.32-122.89,30.93-182.85,51.68-2.18.75-4.47,1.17-6.72,1.74-23.27,8.54-46.63,16.84-69.77,25.71-17.56,6.73-34.83,14.21-52.24,21.32-7.29,3-14.45,6.32-22.19,8-9.61,5.9-20.25,9.62-30.52,14.08q-82.87,36-163.78,76.21a212.77,212.77,0,0,1-26.67,11.11c-47,15.94-92.42,35.81-138.57,53.87-51.19,20-103.19,37.39-157.29,47.9-41.28,8-82.93,13-125,13-33,0-65.93,1.56-98.87,2.83q-101.9,3.94-203.81.7-79.41-2.43-158.35-11.8c-3.3-.39-6.56-1.12-9.84-1.69a409.8,409.8,0,0,1-63.48-9.57,132,132,0,0,1-29.76-6c-30.18-5.31-59.6-13.59-88.62-23.33-23-7.73-45.56-16.74-66.82-28.65-2.23-1.25-5-1.83-6.3-4.74,2.06-2.75,5.21-3.9,8-5.56,17.9-10.91,35.93-21.61,53.29-33.38,5-3.36,9.9-6.77,14-11.18,10.13-10.85,10.57-24.94.7-36a98.31,98.31,0,0,0-12.59-11.33c-29.49-23.37-60.16-45.15-90.52-67.35-1.6-1.18-3.1-2.5-4.64-3.76a2.1,2.1,0,0,1-1.44-1.22c-10.85-7.58-21.67-15.21-32.56-22.73-2.72-1.88-3.18-3.56-1.23-6.5,4.94-7.43,9.5-15.1,14.21-22.67l18.68-43.83c7.82-24.55,16.29-48.9,22.91-73.82,5.86-22,11.54-44.14,17.3-66.22A250.62,250.62,0,0,1,564,1343.9c3-15.5,5.87-31,9-46.5,1-5.15.93-10.55,3.15-15.46,1.89-18.65,6-37,8.86-55.44.85-5.51,2.15-11,3.24-16.43,3.25-23.43,7-46.78,11.9-69.91,1.8-18.21,5.7-36.09,8.62-54.11,5.53-34.12,11.17-68.23,17.4-102.23,7-38.2,22.79-72.69,45.79-103.93,15.35-24,35.58-43.22,58.6-59.64,7.81-5.57,15.68-11.14,24.75-14.64,18.9-11.69,39.81-18.29,61.22-23.21,37-8.51,74.45-8.71,112.17-5.22,34.74,3.22,67.83,12.91,101,22.77,48.47,14.41,96.75,29.35,143.76,48.1,4.27,1.7,8.87,2.78,12.6,5.72a57.81,57.81,0,0,1,17,7.58,60.27,60.27,0,0,0,17.76,7.86c13.36,3.42,25.2,10.19,37.39,16.07,21,10.12,42,20.18,62.11,31.89,14.27,8.33,28.47,16.84,43,24.73,8.1,4.41,16.4,8.5,24.34,13.23,2.85,1.69,5.54,3.64,8.31,5.47,25.79,14.64,50.52,31,75.25,47.31,62.88,41.52,124.82,84.55,183,132.3,122,100.08,261.38,166,410.44,213.63,15.07,4.83,29.91,10.33,45.39,13.93,31.34,7.29,62.41,15.68,93.93,22.25,32.28,6.73,64.76,12.24,97.31,17.47,10.14,1.63,19.13-1.25,27.67-6.2,11.63-6.73,21.54-15.69,31.13-25,28.33-27.37,53.71-57.43,79.1-87.47,51.63-61.1,101-124,153.2-184.7,19.11-22.21,38.16-44.49,61-63.12a26.12,26.12,0,0,1,8.44-5.11,183.11,183.11,0,0,1,35.55-22.36c19.29-12.51,40.17-21.58,61.61-29.38,1.71,2.89-.2,4.28-1.13,5.76-22.28,35.13-44.11,70.54-69.77,103.43-6.88,8.83-14.07,15.62-25.1,17.9-2.27.46-4.48,1.24-6.72,1.87a269.29,269.29,0,0,1-30.5,10.42c-11,4-22.08,7.91-33.08,12-12.47,4.62-14.79,13.35-6.63,24.52,6.23,2.08,12.13,1.37,18.29-1,11.46-4.37,23.14-8.15,34.77-12.06,2.74-.92,5.36-2.57,9.63-1.86-4.05,5.48-7.72,10.48-11.42,15.46-3.18,4.27-6.4,8.5-9.59,12.76-11.42,15.2-11.42,15.27-30.79,16.18-7.63.36-15.27.32-22.9.46-4.25.51-8.48,1.31-12.74,1.47-6.58.25-11.62,2.61-13.58,9.24s.54,11.58,5.94,15.39l2.43,1.68c12.42-.43,24.79-2.4,37.17-1.6,1.12,3.27-1.22,4.69-2.51,6.36-4.86,6.31-9.42,12.79-12,20.4-1.36,4-3.62,5.77-8,5.43-8.22-.61-16.48-.75-24.72-1.08-2.62.07-5.24.32-7.85.19-5.75-.28-10.54,1.51-13.19,6.76-2.79,5.53-1.7,10.86,2.27,15.55a28,28,0,0,0,2.84,2.59c11,2.31,22.27.65,34,2.37-2.42,8.5-6.38,15.73-9.64,23.22-1.32,3-4.27,3-6.81,3.13-9.23.65-18.48,1.09-27.72,1.6-9.5,1-19,1.68-28.5,3a12.54,12.54,0,0,0-11,11.07c-.65,4.92,2.44,10.57,7.11,13.21,3.09,1.74,6.35,1.43,9.64,1.08a146.38,146.38,0,0,1,22.73-1.09c6.4-2.17,13-1.56,20-2.09.08,6.54-3.74,11-5.53,16.15-.86,2.48-2.05,4.86-3.12,7.28-7.26,16.47-7.26,16.47-25.34,16.73-12.6,3.24-25.63,3.63-38.4,5.77-5.57.93-11.22,1.34-16.81,2.17-9,1.33-13.71,6.73-12.93,14.56.73,7.36,6.16,11.32,14.85,11.44,7.65.11,14.95-2,22.42-2.93,3.63-.46,7.21-1.26,10.9-.87,8.21-2.47,16.71-2.44,26.22-3.63-4.76,10.89-9.17,20.78-13.39,30.75-1.4,3.29-3.89,4.18-7.06,4.24l-17.77.37a8.18,8.18,0,0,1-5.26.28,1.53,1.53,0,0,1-2.36.24,10.36,10.36,0,0,1-6.56.74l-3.53.19c-12.06.88-24.11,2-36.19,2.51-5.4.22-9.1,2.2-11.6,6.8-1.49,12.56.33,16.39,9.1,19.83a6.59,6.59,0,0,0,4.44.56c14.59-3.23,29.52-3.22,44.34-3.45,5.79-.09,11.51-3.43,17.69-.43a34.23,34.23,0,0,0,0,26.79l7.29,9.16c-4.91,1.86-8.7.62-12.36.09-10.51-1.54-21-3.44-31.47-4.91-12.74-1.78-17.4,2.2-18.6,15.44,2.7,6.44,7.51,9.45,14.49,10.42,21.75,3,43.42,6.54,65.13,9.8,3,.45,5.92.64,7.94,3.42,4.63,6.41,9.37,12.74,13.06,20.75-10.87-2.28-21.76-4.54-32.63-6.85-4.55-1-9.06-2.16-13.63-3-11-2.14-17.55.85-19.36,8.64-2,8.62,2.75,14.45,13.8,16.87,12.35,2.71,24.86,4.82,37,8.23,10.81,3,21.87,4.43,32.79,6.69,5.92,1.23,10.4,3.63,13.46,9,2.09,3.68,4.94,6.93,8.36,11.62-6.08,1.21-10.86.33-15.58,0-7.64-.49-15.26-1.36-22.9-1.71-9.57-.44-15.11,3.65-16,11.29s4.71,13.58,14.3,14.55c12.25,1.24,24.52,2.12,36.79,3.15,7-.69,13.84,1.5,20.82,1.34,3-.07,4.86,1.59,6.47,3.89,2.66,3.77,5.45,7.46,9.38,12.81-12.45,1.3-23.51,1.4-34.57,1.57a50.32,50.32,0,0,0-5.75,3.7,12,12,0,0,0-3.88,13.38,11.79,11.79,0,0,0,10.66,8.91c2.28.25,4.59.29,6.88.43a193.68,193.68,0,0,1,26.05-1.14,5.58,5.58,0,0,1,.92-.38c10.63-2.41,20.28-2,27.15,8.3,1.79,2.68,4.7,4.61,8.18,7.93-5.84,1.35-10.69.69-15.35.25-6.81-.66-12.53.81-16.91,6.28-2.28,8.59-.15,15.32,8.18,19.44,10.6,1.26,21.41-.26,31.91,2.43,3,0,6,.33,8.84-.07,12.4-1.74,20.36,4.64,27.61,15.15-5.57,1.87-10.64,3.73-15.8,5.26-4.93,1.45-9,4-11.75,8.35-1.86,5.67.05,10.58,3.12,15.25,5.71,3.4,11.54,3.48,17.64.93,2.64-1.1,5.56-1.53,8.35-2.27l15.73-5.78c2.33-.86,4.47-.88,6.36,1.14,5.6,6,11.25,11.88,18.13,19.11-8.91,1-15.95,2.18-23,2.5-4.71.2-7.92,2.39-10.93,5.47-.33,1.26-.71,2.5-1,3.77-2.07,9.33,2.53,17.31,13.87,16.8,2.92-.13,5.83-.44,8.74-.67,9.52-1,19.05-2,28.57-3,3.05-.34,5.77-.4,8,2.45,4.64,6,9.54,11.73,15.23,18.68-9.48,0-17.22-2.07-24.87-3.81s-13.68-.75-18.83,5.13c-2.88,8.2-.56,14.64,6.59,19.45,17.65,3.23,35.27,6.64,53,9.6,4.93.83,7.33,3.21,9.14,7.67,7.14,17.68,11.33,36.13,15.07,54.72,1.57,7.78,2.73,15.66,4,23.34C2805.55,1936.1,2804.36,1934.72,2803.14,1933.79Z" transform="translate(-412.98 -722.08)"/></g></g></svg>