<svg id="Layer_1" data-name="Layer 1" xmlns="http://www.w3.org/2000/svg" viewBox="0 0 617.16 792.71"><defs><style>.cls-1{fill:#86a979;}.cls-2{fill:#78976c;}.cls-3{fill:#c9c9c9;}.cls-4{fill:#e9e9e9;}</style></defs><title>logo</title><g id="logo"><path id="eyes" class="cls-1" d="M694.18,323.75s-.13,36.94-.2,53.05H77.05c0-16.12,0-52.8,0-52.8m38,0c4.45.12,5.61-1.38,4.84-5.53a236,236,0,0,1-2.41-71.17c6-50.51,23.14-96.21,60.92-131.91,25-23.65,55-36.42,89.94-33.88,24.79,1.8,46.68,11.83,65.93,27.53,21.94,17.89,37.47,40.54,49,66.13.87,1.94,1.78,3.88,2.71,5.8.07.16.36.21,1,.54,2.58-14.18,5.15-28.22,9-42,11.16-39.56,27.56-76.29,57.85-105.26,18.94-18.1,41-29.62,67.95-29,25.15.55,45.75,11.72,63.66,28.49,25.1,23.49,40.81,52.91,51.86,84.89,16.25,47,21.9,95.49,18.46,145.12A363.82,363.82,0,0,1,648.16,319c-.85,3.73,0,5,3.88,4.91M615.67,198.11c-.79-33.67-9.18-64.9-31.36-91.23-16.84-20-38-32.31-64.78-31.94-25.75.36-46,12.52-62.34,31.67-18.56,21.82-27.88,47.59-30.49,75.86-3.63,39.45,4.76,75.73,30.32,106.75,16.62,20.16,37.92,32.34,64.74,32,25.75-.36,46.09-12.48,62.33-31.67C606.33,263.24,614.82,232,615.67,198.11ZM259.78,322.73c23.24-.32,41.88-5.23,59-15.69C368,277,374.09,212.88,331.26,175.71c-37.91-32.91-97.59-33-135.8-.24-31.2,26.77-38.29,70.14-16.33,103.55C198.86,309,228.24,321.22,259.78,322.73Z" transform="translate(-77.03 -5.18)"/><path id="chin_tie" data-name="chin+tie" d="M635,388.4c-2,0-4.38-2.07-6-.09-3.91,20.2-15.86,36.54-31.15,49.32-16,15.05-35.22,24.72-55.15,33.16-8.64,3.67-17.35,7.26-26.59,9.23-16.46,6.43-33.74,9.68-51.05,12.4-63,9.91-125.42,7.41-186.9-10.1C247.24,473.5,218,460.84,192.94,440c-16.51-13.74-29.49-30-34.19-51.59H106c1.68,16.46,8.07,31,17.83,44.23,13.92,18.86,32,32.87,52.14,44.37,44.73,25.55,93.55,38,144.22,44.26,9.8,1.22,29.78,1.55,29.78,1.55L371,552a4.49,4.49,0,0,1-.28,1s-5.54,18.24-8,27.43c-12.11,45.41-25.43,90.49-38.27,135.7-.62,2.18-1.05,3.9.64,5.81,5.9,6.63,11.76,13.31,17.49,20.09,8.57,10.13,16.91,20.45,25.53,30.53,7.21,8.42,14.7,16.61,22.46,25.35,10.48-12.51,20.42-24.57,30.57-36.44,11.26-13.18,22.69-26.21,34.12-39.24,1.82-2.07,1.53-3.85.77-6.34q-7.59-25-14.71-50c-7.9-28-28.6-113.82-28.6-113.82l20.67-29.29s48.16-5.92,71.71-11.89c40-10.16,78.23-24.6,111.16-50.34C640,442,658.14,419.73,661.71,388.42,652.82,388.4,643.92,388.37,635,388.4Z" transform="translate(-77.03 -5.18)"/><path id="lip" class="cls-2" d="M77.05,376.8H694l.07,11.79c-7.1,0-25.25-.18-32.34-.17-8.89,0-17.79-.05-26.68,0l-6-.09-7.41.1c-111.1-.05-230.47.17-341.58.18h0l-69.66-.06-51.63-.12H77.05" transform="translate(-77.03 -5.18)"/><path id="shadow1" class="cls-3" d="M210.38,388.53c1.09,15.06,8.52,27.24,18.2,38,26.09,29.12,60.54,43.35,97.17,53.28,7.65,2.08,14.89,3.73,21.68,5a342.23,342.23,0,0,0,47.15,5.66,419.16,419.16,0,0,0,72.8-2.68c20.94-2.37,38.93-4.19,58.45-10.71,2.77-.93,12.62-4.3,12.69-4.1s-7.29,3-13.85,5.43h0l-2.39.85c-10.53,3.73-31.35,8.26-31.35,8.26-7.41,1.61-13.42,2.74-16.26,3.22l-8.22,1.37-1.36.22c-63,9.91-125.42,7.41-186.9-10.1C247.24,473.5,218,460.84,192.94,440c-16.51-13.74-29.49-30-34.19-51.59Z" transform="translate(-77.03 -5.18)"/><path id="shadow2" class="cls-4" d="M280,388.59c-1,19.92,10.7,32.91,25,43.82,25.19,19.15,54.82,27.36,85.29,33.48,28.6,5.74,57.54,6.32,86.36,4.8,28.24-1.49,65-4.59,105.24-25.47a215,215,0,0,0,22.67-13.6c-4.67,4.33-23,21-44.14,31.88A200.77,200.77,0,0,1,535.84,474c-1.1.36-5.4,1.72-10,3.14-3.16,1-4.43,1.35-5.29,1.6-1.66.49-5.27,1.54-8.71,2.4-2,.5-3.89.91-11.66,2.33-3.32.61-8.79,1.61-12.17,2.17A472,472,0,0,1,440.33,491a392.37,392.37,0,0,1-45.75-.44c-15.38-1-40-2.89-68.83-10.71-36.63-9.93-71.08-24.16-97.17-53.28-9.68-10.8-17.11-23-18.2-38Z" transform="translate(-77.03 -5.18)"/></g></svg>